<svg xmlns="http://www.w3.org/2000/svg" id="Layer_1" data-name="Layer 1" viewBox="0 0 69 69"><defs><style>.cls-1{fill:#fff;}.cls-2{fill:#3c81c3;}.cls-3{fill:#282d33;}</style></defs><circle class="cls-1" cx="34.5" cy="34.5" r="34.5"></circle><path class="cls-2" d="M45.67,18.79a21.81,21.81,0,0,1-11.17-5.3,21.81,21.81,0,0,1-11.17,5.3A24.85,24.85,0,0,1,15,19V35c0,12.31,8.22,17.71,19.47,21C45.75,52.73,54,47.33,54,35V19A24.85,24.85,0,0,1,45.67,18.79Z"></path><path class="cls-3" d="M34.5,57.5l-.4-.12C24.56,54.6,13.6,49.54,13.6,35V17.31l1.65.26a23.48,23.48,0,0,0,7.82-.18A20.55,20.55,0,0,0,33.5,12.48l1-1,1,1a20.55,20.55,0,0,0,10.44,4.91,23.42,23.42,0,0,0,7.81.18l1.65-.25V35c0,14.52-11,19.58-20.5,22.36Zm-18-36.92V35c0,9.88,5.41,15.73,18.05,19.51,12.64-3.78,18-9.63,18-19.51V20.58a27,27,0,0,1-7.14-.39A24.52,24.52,0,0,1,34.5,15.41a24.52,24.52,0,0,1-10.91,4.78A27,27,0,0,1,16.45,20.58Z"></path><path class="cls-1" d="M42.34,34.31a7.84,7.84,0,1,1-7.84-7.84A7.84,7.84,0,0,1,42.34,34.31Z"></path><path class="cls-3" d="M33.47,30.29a.81.81,0,0,1,.23-.56.77.77,0,0,1,.55-.23.79.79,0,0,1,.55.23.81.81,0,0,1,.23.56v4.09l3.06,1.81a.82.82,0,0,1,.36.48.78.78,0,0,1-.09.59.84.84,0,0,1-.47.36.77.77,0,0,1-.59-.09l-3.43-2a.83.83,0,0,1-.29-.27.81.81,0,0,1-.11-.41V30.29Z"></path></svg>