<svg xmlns="http://www.w3.org/2000/svg" id="Layer_1" data-name="Layer 1" viewBox="0 0 69 69"><defs><style>.cls-1{fill:#fff;}.cls-2{fill:#282d33;}.cls-3{fill:#f16226;}.cls-4{fill:#f6c24f;}</style></defs><circle class="cls-1" cx="34.5" cy="34.5" r="34.5"></circle><path class="cls-2" d="M49.09,34.82H47.25V26.09a12.75,12.75,0,0,0-25.5,0v8.73H19.91V26.09a14.59,14.59,0,0,1,29.18,0Z"></path><rect class="cls-3" x="43.54" y="28.11" width="5.92" height="10.89" rx="2.84"></rect><path class="cls-4" d="M46.27,47.84a2.8,2.8,0,0,1-2.89,2.7H25.55a2.8,2.8,0,0,1-2.89-2.7V29.53a2.8,2.8,0,0,1,2.89-2.7H43.38a2.8,2.8,0,0,1,2.89,2.7Z"></path><path class="cls-1" d="M45.41,28.19v6.63A10.9,10.9,0,0,1,34.5,45.73h0A10.91,10.91,0,0,1,23.58,34.82v-4.6l4.94-7.81,16.89,2.3Z"></path><path class="cls-2" d="M34.5,46.65A11.84,11.84,0,0,1,22.67,34.82V30l5.39-8.52L45.54,23.8l-.25,1.82L29,23.4,24.5,30.48v4.34a10,10,0,0,0,20,0V28.19h1.83v6.63A11.85,11.85,0,0,1,34.5,46.65Z"></path><path class="cls-4" d="M23.58,26.09v4.15c3.86-.12,7-4.15,7-9.11a11.15,11.15,0,0,0-1-4.74A10.92,10.92,0,0,0,23.58,26.09Z"></path><path class="cls-4" d="M22.67,31.19v-5.1a11.8,11.8,0,0,1,6.39-10.51l.85-.44.41.86a12,12,0,0,1,1.13,5.13c0,5.49-3.44,9.9-7.84,10ZM29,17.71a10,10,0,0,0-4.54,8.38V29.2c2.89-.69,5.11-4.08,5.11-8.07A10.31,10.31,0,0,0,29,17.71Z"></path><path class="cls-1" d="M18.9,57.5V53a4.63,4.63,0,0,1,4.88-4.32H45.22A4.63,4.63,0,0,1,50.1,53V57.5Z"></path><path class="cls-2" d="M51,57.5H49.19V53a3.73,3.73,0,0,0-4-3.4H23.78a3.73,3.73,0,0,0-4,3.4V57.5H18V53a5.55,5.55,0,0,1,5.8-5.24H45.22A5.55,5.55,0,0,1,51,53Z"></path><rect class="cls-2" x="33.72" y="51.68" width="1.84" height="1.8"></rect><rect class="cls-2" x="33.72" y="55.7" width="1.84" height="1.8"></rect><rect class="cls-3" x="19.06" y="28.11" width="5.92" height="10.89" rx="2.84"></rect><rect class="cls-2" x="34.32" y="32.16" width="1.84" height="5.66"></rect><path class="cls-2" d="M21.75,34.82H19.91V26.09A14.61,14.61,0,0,1,34.5,11.5v1.84A12.76,12.76,0,0,0,21.75,26.09Z"></path><path class="cls-4" d="M34.5,15.17a10.9,10.9,0,0,0-7.52,3c.2,7.07,6.92,12.76,15.2,12.76a18,18,0,0,0,3.23-.3V26.09A10.91,10.91,0,0,0,34.5,15.17Z"></path><path class="cls-4" d="M42.18,31.86c-8.83,0-15.9-6-16.11-13.66l0-.41.3-.28a11.83,11.83,0,0,1,20,8.58V31.4l-.75.14A18.55,18.55,0,0,1,42.18,31.86ZM27.92,18.56C28.35,24.92,34.65,30,42.18,30a16.45,16.45,0,0,0,2.32-.16V26.09a10,10,0,0,0-16.58-7.53Z"></path><path class="cls-2" d="M45.35,43.49h-9.1V41.65h9.1a.92.92,0,0,0,.92-.92V38.55h1.84v2.18A2.77,2.77,0,0,1,45.35,43.49Z"></path></svg>