<svg xmlns="http://www.w3.org/2000/svg" xmlns:xlink="http://www.w3.org/1999/xlink" id="Layer_1" x="0px" y="0px" viewBox="0 0 69 69" style="enable-background:new 0 0 69 69;" xml:space="preserve"><style type="text/css">	.st0{fill:#FFFFFF;}	.st1{fill:#E33B34;}	.st2{fill:#3C81C3;}	.st3{fill:#282D33;}	.st4{fill:#F38820;}	.st5{fill:#7BB042;}	.st6{fill:#F16227;}</style><circle class="st0" cx="34.5" cy="34.5" r="34.5"></circle><g>	<circle class="st4" cx="38.1" cy="21.7" r="5.9"></circle>	<g>		<g>			<rect x="36.6" y="10.5" class="st3" width="1.9" height="3.8"></rect>		</g>		<g>			<rect x="32.1" y="12" transform="matrix(0.8662 -0.4996 0.4996 0.8662 -2.5223 18.3536)" class="st3" width="1.9" height="3.8"></rect>		</g>		<g>			<rect x="28.9" y="15.5" transform="matrix(0.5 -0.866 0.866 0.5 -0.1811 34.567)" class="st3" width="1.9" height="3.8"></rect>		</g>		<g>			<rect x="27" y="21.2" class="st3" width="3.8" height="1.9"></rect>		</g>		<g>			<rect x="28.5" y="25.7" transform="matrix(0.866 -0.5001 0.5001 0.866 -9.2456 18.7538)" class="st3" width="3.8" height="1.9"></rect>		</g>		<g>							<rect x="45.3" y="23.8" transform="matrix(0.4998 -0.8661 0.8661 0.4998 0.8629 52.9476)" class="st3" width="1.9" height="3.8"></rect>		</g>		<g>							<rect x="45.3" y="20.1" transform="matrix(1 -1.244206e-03 1.244206e-03 1 -2.617103e-02 5.880023e-02)" class="st3" width="3.8" height="1.9"></rect>		</g>		<g>							<rect x="43.8" y="15.6" transform="matrix(0.8661 -0.4999 0.4999 0.8661 -2.1412 25.0869)" class="st3" width="3.8" height="1.9"></rect>		</g>		<g>							<rect x="40.3" y="12.4" transform="matrix(0.4999 -0.8661 0.8661 0.4999 9.5292 43.2387)" class="st3" width="3.8" height="1.9"></rect>		</g>	</g>	<g>		<path class="st0" d="M26.4,50.8h3.1c1.1,1.5,2.9,2.5,5,2.5h4.1h5.9h0.3l0,0h2.5c1.6,0,2.8-1.3,2.8-2.8c0-1.6-1.3-2.8-2.8-2.8h2.2   c1.6,0,2.8-1.3,2.8-2.8c0-1.6-1.3-2.8-2.8-2.8h0.7c1.6,0,2.8-1.3,2.8-2.8c0-1.6-1.3-2.8-2.8-2.8h1.5c1.5,0,2.8-1.3,2.8-2.8   c0-1.6-1.3-2.8-2.8-2.8H44c-0.2,0-0.3,0-0.5,0h-3.1l1-3.5v-4c0-1.9-1.6-3.5-3.5-3.5h-1.2c0,0-0.1,0-0.1,0v5.4l-1.4,1.9L30,32.8   c-0.7,0.8-1.3,1.7-1.5,2.8h-2.1V50.8z"></path>		<path class="st3" d="M44.9,54.2H34.5c-2.1,0-4.1-0.9-5.4-2.5h-2.7v-1.9H30l0.3,0.4c1,1.3,2.5,2.1,4.2,2.1l12.8,0   c1,0,1.9-0.8,1.9-1.9c0-1-0.8-1.9-1.9-1.9v-1.9h2.2c1,0,1.9-0.8,1.9-1.9c0-1-0.8-1.9-1.9-1.9v-1.9h0.7c1,0,1.9-0.8,1.9-1.9   c0-1-0.8-1.9-1.9-1.9v-1.9h1.5c1,0,1.9-0.8,1.9-1.9c0-1-0.8-1.9-1.9-1.9H44c-0.1,0-0.2,0-0.3,0l-0.2,0h-4.4l1.3-4.6v-3.8   c0-1.4-1.2-2.6-2.6-2.6h-0.4v4.7l-1.6,2.3l-5.1,5.6c-0.6,0.7-1.1,1.5-1.3,2.4l-0.2,0.7h-2.8v-1.9h1.4c0.3-0.9,0.9-1.8,1.5-2.5   l5.1-5.5l1.2-1.6v-6l0.9,0c0.1,0,0.1,0,0.2,0h1.2c2.5,0,4.5,2,4.5,4.5v4.1l-0.7,2.4h1.8c0.2,0,0.4,0,0.5,0h7.9   c2.1,0,3.8,1.7,3.8,3.8c0,1.5-0.9,2.8-2.2,3.4c0.4,0.6,0.7,1.4,0.7,2.2c0,1.3-0.7,2.5-1.7,3.1c0.6,0.7,0.9,1.5,0.9,2.5   c0,1.7-1.2,3.2-2.8,3.6c0.4,0.6,0.6,1.3,0.6,2c0,2.1-1.7,3.8-3.8,3.8L44.9,54.2z"></path>	</g>	<rect x="13.4" y="34.4" class="st5" width="11.7" height="22.1"></rect>	<g>		<rect x="21.1" y="52.6" class="st0" width="1.5" height="1.4"></rect>	</g></g></svg>