<svg xmlns="http://www.w3.org/2000/svg" xmlns:xlink="http://www.w3.org/1999/xlink" id="Layer_1" x="0px" y="0px" viewBox="0 0 69 69" style="enable-background:new 0 0 69 69;" xml:space="preserve"><style type="text/css">	.st0{fill:#FFFFFF;}	.st1{fill:#E33B34;}	.st2{fill:#3C81C3;}	.st3{fill:#282D33;}	.st4{fill:#F38820;}	.st5{fill:#7BB042;}	.st6{fill:#F16227;}</style><circle class="st0" cx="34.5" cy="34.5" r="34.5"></circle><g>	<polygon class="st1" points="43.3,56.8 34.5,52.5 25.7,56.8 25.7,35 34.5,30 43.3,35  "></polygon>	<g>		<path class="st2" d="M34.5,49.4c-0.9,0-1.5-0.7-2.1-1.2c-0.2-0.2-0.5-0.6-0.7-0.6c-0.1,0-0.6,0.2-0.9,0.4   c-0.5,0.3-1.1,0.6-1.8,0.6c-0.2,0-0.4,0-0.5-0.1c-0.8-0.3-1.2-1.1-1.6-1.8c-0.1-0.3-0.3-0.7-0.5-0.8h0c0,0-0.1,0-0.1,0   c-0.2,0-0.5,0.1-0.8,0.1c-0.4,0.1-0.8,0.1-1.1,0.1c-0.5,0-0.9-0.1-1.2-0.4c-0.7-0.5-0.8-1.4-0.9-2.2c0-0.3-0.1-0.8-0.2-0.9   c-0.1-0.1-0.6-0.1-0.9-0.2c-0.8-0.1-1.7-0.2-2.2-0.9c-0.5-0.7-0.4-1.6-0.2-2.4c0.1-0.3,0.1-0.8,0.1-0.9c-0.1-0.1-0.5-0.3-0.8-0.5   c-0.7-0.3-1.5-0.7-1.8-1.6c-0.3-0.8,0.1-1.6,0.5-2.3c0.1-0.3,0.4-0.7,0.4-0.9c0-0.1-0.4-0.5-0.6-0.7c-0.5-0.5-1.2-1.2-1.2-2.1   c0-0.9,0.7-1.5,1.2-2.1c0.2-0.2,0.6-0.5,0.6-0.7c0-0.1-0.2-0.6-0.4-0.9c-0.4-0.7-0.8-1.5-0.5-2.3c0.3-0.8,1.1-1.2,1.8-1.6   c0.3-0.1,0.7-0.4,0.8-0.5c0-0.1,0-0.6-0.1-0.9c-0.1-0.8-0.3-1.6,0.2-2.4c0.5-0.7,1.4-0.8,2.2-0.9c0.3,0,0.8-0.1,0.9-0.2   c0.1-0.1,0.1-0.6,0.2-0.9c0.1-0.8,0.2-1.7,0.9-2.2c0.3-0.2,0.7-0.4,1.2-0.4c0.4,0,0.8,0.1,1.1,0.1c0.3,0,0.6,0.1,0.8,0.1   c0.1,0,0.1,0,0.1,0c0.1-0.1,0.3-0.5,0.5-0.8c0.3-0.7,0.7-1.5,1.6-1.8c0.2-0.1,0.4-0.1,0.5-0.1c0.6,0,1.2,0.3,1.8,0.6   c0.3,0.2,0.7,0.4,0.9,0.4c0.1,0,0.5-0.4,0.7-0.6c0.5-0.5,1.2-1.2,2.1-1.2c0.9,0,1.5,0.7,2.1,1.2c0.2,0.2,0.5,0.6,0.7,0.6   c0.1,0,0.6-0.2,0.9-0.4c0.6-0.3,1.1-0.6,1.8-0.6c0.2,0,0.4,0,0.5,0.1c0.8,0.3,1.2,1.1,1.6,1.8c0.1,0.3,0.3,0.7,0.5,0.8l0,0   c0,0,0.1,0,0.1,0c0.2,0,0.5-0.1,0.8-0.1c0.4-0.1,0.7-0.1,1.1-0.1c0.5,0,0.9,0.1,1.2,0.4c0.7,0.5,0.8,1.4,0.9,2.2   c0,0.3,0.1,0.8,0.2,0.9c0.1,0.1,0.6,0.1,0.9,0.2c0.8,0.1,1.7,0.2,2.2,0.9c0.5,0.7,0.4,1.6,0.2,2.4c-0.1,0.3-0.1,0.8-0.1,0.9   c0.1,0.1,0.5,0.3,0.8,0.5c0.7,0.3,1.5,0.7,1.8,1.6c0.3,0.8-0.1,1.6-0.5,2.3c-0.1,0.3-0.4,0.7-0.4,0.9c0,0.1,0.4,0.5,0.6,0.7   c0.5,0.5,1.2,1.2,1.2,2.1c0,0.9-0.7,1.5-1.2,2.1c-0.2,0.2-0.6,0.5-0.6,0.7c0,0.1,0.2,0.6,0.4,0.9c0.4,0.7,0.8,1.5,0.5,2.3   c-0.3,0.8-1.1,1.2-1.8,1.6c-0.3,0.1-0.7,0.3-0.8,0.5c0,0.1,0,0.6,0.1,0.9c0.1,0.8,0.3,1.6-0.2,2.4c-0.5,0.7-1.4,0.8-2.2,0.9   c-0.3,0-0.8,0.1-0.9,0.2c-0.1,0.1-0.1,0.6-0.2,0.9c-0.1,0.8-0.2,1.7-0.9,2.2c-0.3,0.2-0.7,0.4-1.2,0.4c-0.4,0-0.8-0.1-1.1-0.1   c-0.3-0.1-0.6-0.1-0.8-0.1c-0.1,0-0.1,0-0.1,0c-0.1,0.1-0.3,0.5-0.5,0.8c-0.3,0.7-0.7,1.5-1.6,1.8c-0.2,0.1-0.4,0.1-0.5,0.1   c-0.6,0-1.2-0.3-1.8-0.6c-0.3-0.2-0.7-0.4-0.9-0.4c-0.1,0-0.5,0.4-0.7,0.6C36,48.8,35.4,49.4,34.5,49.4z"></path>		<path class="st3" d="M34.5,12.1c0.9,0,1.7,1.7,2.6,1.8c0,0,0.1,0,0.1,0c0.8,0,1.8-1,2.6-1c0.1,0,0.2,0,0.3,0   c0.9,0.3,1.1,2.1,1.9,2.5c0.2,0.1,0.4,0.1,0.6,0.1c0.6,0,1.3-0.2,1.9-0.2c0.3,0,0.5,0,0.7,0.2c0.7,0.5,0.4,2.4,1,3   c0.6,0.6,2.5,0.3,3,1c0.5,0.7-0.4,2.4,0.1,3.2c0.4,0.8,2.3,1,2.5,1.9c0.3,0.9-1.1,2.1-0.9,3c0.1,0.9,1.8,1.7,1.8,2.6   c0,0.9-1.7,1.7-1.8,2.6c-0.1,0.9,1.2,2.2,0.9,3c-0.3,0.9-2.1,1.1-2.5,1.9c-0.4,0.8,0.5,2.4-0.1,3.2c-0.5,0.7-2.4,0.4-3,1   c-0.6,0.6-0.3,2.5-1,3c-0.2,0.1-0.4,0.2-0.7,0.2c-0.6,0-1.3-0.2-1.9-0.2c-0.2,0-0.4,0-0.6,0.1c-0.8,0.4-1,2.3-1.9,2.5   c-0.1,0-0.2,0-0.3,0c-0.8,0-1.8-1-2.6-1c0,0-0.1,0-0.1,0c-0.9,0.1-1.7,1.8-2.6,1.8c-0.9,0-1.7-1.7-2.6-1.8c0,0-0.1,0-0.1,0   c-0.8,0-1.8,1-2.6,1c-0.1,0-0.2,0-0.3,0c-0.9-0.3-1.1-2.1-1.9-2.5C26.8,45,26.6,45,26.4,45c-0.6,0-1.3,0.2-1.9,0.2   c-0.3,0-0.5,0-0.7-0.2c-0.7-0.5-0.4-2.4-1-3c-0.6-0.6-2.5-0.3-3-1c-0.5-0.7,0.4-2.4,0-3.2c-0.4-0.8-2.3-1-2.5-1.9   c-0.3-0.9,1.1-2.1,0.9-3c-0.1-0.9-1.8-1.7-1.8-2.6c0-0.9,1.7-1.7,1.8-2.6c0.1-0.9-1.2-2.2-0.9-3c0.3-0.9,2.1-1.1,2.5-1.9   c0.4-0.8-0.5-2.4,0.1-3.2c0.5-0.7,2.4-0.4,3-1c0.6-0.6,0.3-2.5,1-3c0.2-0.1,0.4-0.2,0.7-0.2c0.6,0,1.3,0.2,1.9,0.2   c0.2,0,0.4,0,0.6-0.1c0.8-0.4,1-2.3,1.9-2.5c0.1,0,0.2,0,0.3,0c0.8,0,1.8,1,2.6,1c0,0,0.1,0,0.1,0C32.8,13.8,33.6,12.1,34.5,12.1   L34.5,12.1z M34.5,10.2c-1.3,0-2.2,0.9-2.7,1.5c-0.1,0.1-0.1,0.1-0.2,0.2c-0.1,0-0.2-0.1-0.2-0.1c-0.6-0.3-1.3-0.7-2.2-0.7   c-0.3,0-0.6,0-0.8,0.1c-1.2,0.4-1.8,1.5-2.1,2.3c0,0.1-0.1,0.2-0.1,0.2c-0.1,0-0.2,0-0.3,0c-0.4-0.1-0.8-0.1-1.3-0.1   c-0.7,0-1.3,0.2-1.8,0.5c-1,0.8-1.2,2-1.3,2.8c0,0.1,0,0.2,0,0.3c-0.1,0-0.2,0-0.3,0c-0.8,0.1-2.1,0.3-2.8,1.3   c-0.8,1-0.5,2.3-0.4,3.1c0,0.1,0,0.2,0,0.3c-0.1,0-0.2,0.1-0.2,0.1c-0.7,0.4-1.9,0.9-2.3,2.1c-0.4,1.2,0.2,2.3,0.6,3   c0,0.1,0.1,0.2,0.1,0.2c-0.1,0.1-0.1,0.1-0.2,0.2c-0.6,0.6-1.5,1.4-1.5,2.7c0,1.3,0.9,2.2,1.5,2.7c0.1,0.1,0.1,0.1,0.2,0.2   c0,0.1-0.1,0.2-0.1,0.2c-0.4,0.8-1,1.8-0.6,3c0.4,1.2,1.5,1.8,2.3,2.1c0.1,0,0.2,0.1,0.2,0.1c0,0.1,0,0.2,0,0.3   c-0.1,0.8-0.4,2,0.4,3.1c0.8,1,2,1.2,2.8,1.3c0.1,0,0.2,0,0.3,0c0,0.1,0,0.2,0,0.3c0.1,0.8,0.3,2.1,1.3,2.8   c0.5,0.4,1.1,0.5,1.8,0.5c0.5,0,0.9-0.1,1.3-0.1c0.1,0,0.2,0,0.3,0c0,0.1,0.1,0.2,0.1,0.2c0.4,0.7,0.9,1.9,2.1,2.3   c0.3,0.1,0.5,0.1,0.8,0.1c0.9,0,1.6-0.4,2.2-0.7c0.1,0,0.2-0.1,0.2-0.1c0.1,0.1,0.1,0.1,0.2,0.2c0.6,0.6,1.4,1.5,2.7,1.5   c1.3,0,2.2-0.9,2.7-1.5c0.1-0.1,0.1-0.1,0.2-0.2c0.1,0,0.2,0.1,0.2,0.1c0.6,0.3,1.3,0.7,2.2,0.7c0.3,0,0.6,0,0.8-0.1   c1.2-0.4,1.8-1.5,2.1-2.3c0-0.1,0.1-0.2,0.1-0.2c0.1,0,0.2,0,0.3,0c0.4,0.1,0.8,0.1,1.3,0.1c0.7,0,1.3-0.2,1.8-0.5   c1-0.8,1.2-2,1.3-2.8c0-0.1,0-0.2,0-0.3c0.1,0,0.2,0,0.3,0c0.8-0.1,2.1-0.3,2.8-1.3c0.8-1,0.5-2.3,0.4-3.1c0-0.1,0-0.2,0-0.3   c0.1,0,0.2-0.1,0.2-0.1c0.7-0.4,1.9-0.9,2.3-2.1c0.4-1.2-0.2-2.3-0.6-3c0-0.1-0.1-0.2-0.1-0.2c0.1-0.1,0.1-0.1,0.2-0.2   c0.6-0.6,1.5-1.5,1.5-2.7c0-1.3-0.9-2.2-1.5-2.7c-0.1-0.1-0.1-0.1-0.2-0.2c0-0.1,0.1-0.2,0.1-0.2c0.4-0.8,1-1.8,0.6-3   c-0.4-1.2-1.5-1.8-2.3-2.1c-0.1,0-0.2-0.1-0.2-0.1c0-0.1,0-0.2,0-0.3c0.1-0.8,0.4-2-0.4-3.1c-0.8-1-2-1.2-2.8-1.3   c-0.1,0-0.2,0-0.3,0c0-0.1,0-0.2,0-0.3c-0.1-0.8-0.3-2.1-1.3-2.8c-0.5-0.4-1.1-0.5-1.8-0.5c-0.5,0-0.9,0.1-1.3,0.1   c-0.1,0-0.2,0-0.3,0c0-0.1-0.1-0.2-0.1-0.2c-0.4-0.7-0.9-1.9-2.1-2.3c-0.3-0.1-0.5-0.1-0.8-0.1c-0.9,0-1.6,0.4-2.2,0.7   c-0.1,0-0.2,0.1-0.2,0.1c-0.1-0.1-0.1-0.1-0.2-0.2C36.7,11.1,35.8,10.2,34.5,10.2L34.5,10.2z"></path>	</g>	<g>		<circle class="st0" cx="34.5" cy="30.3" r="12.6"></circle>		<path class="st3" d="M34.5,43.8C27,43.8,21,37.8,21,30.3c0-7.5,6.1-13.5,13.5-13.5C42,16.8,48,22.9,48,30.3   C48,37.8,42,43.8,34.5,43.8z M34.5,18.7c-6.4,0-11.6,5.2-11.6,11.6c0,6.4,5.2,11.6,11.6,11.6c6.4,0,11.6-5.2,11.6-11.6   C46.1,23.9,40.9,18.7,34.5,18.7z"></path>	</g>	<g>		<polygon class="st4" points="34.5,23.8 36.6,28 41.2,28.6 37.8,31.9 38.6,36.5 34.5,34.3 30.4,36.5 31.2,31.9 27.8,28.6 32.4,28      "></polygon>		<path class="st3" d="M39.9,38.2l-5.4-2.8l-5.4,2.8l1-6L25.8,28l6-0.9l2.7-5.4l2.7,5.4l6,0.9l-4.4,4.2L39.9,38.2z M29.9,29.3   l2.3,2.3l-0.5,3.2l2.9-1.5l2.9,1.5l-0.5-3.2l2.3-2.3l-3.2-0.5l-1.4-2.9l-1.4,2.9L29.9,29.3z"></path>	</g></g></svg>