<svg xmlns="http://www.w3.org/2000/svg" id="Layer_1" data-name="Layer 1" viewBox="0 0 597.4 201.86"><path d="M94.55,108.49a25.27,25.27,0,0,1,5.58,16.14,26,26,0,0,1-4,14.46,26.87,26.87,0,0,1-11.67,9.76,42.83,42.83,0,0,1-18,3.52H22.2V49.93H64.47a43.82,43.82,0,0,1,18,3.38A25.59,25.59,0,0,1,93.89,62.7a24.61,24.61,0,0,1,3.89,13.65q0,9-4.77,15a25.51,25.51,0,0,1-12.69,8.51A23,23,0,0,1,94.55,108.49ZM42.75,92.2H61.53q7.34,0,11.3-3.3t4-9.47q0-6.17-4-9.54t-11.3-3.37H42.75Zm32.36,39.92q4.17-3.52,4.18-10,0-6.61-4.4-10.35T63,108.05H42.75v27.59H63.44Q70.93,135.64,75.11,132.12Z"></path><path d="M165.53,152.37l-22.6-39.92h-9.69v39.92H112.69V49.93h38.46q11.88,0,20.25,4.18A29.32,29.32,0,0,1,184,65.41a31,31,0,0,1,4.18,15.93,30.52,30.52,0,0,1-5.87,18.27q-5.88,8.15-17.47,11.23l24.51,41.53ZM133.24,97h17.17q8.37,0,12.48-4c2.73-2.68,4.11-6.43,4.11-11.22s-1.38-8.34-4.11-10.94S156,67,150.41,67H133.24Z"></path><path d="M265.71,132.85h-40.8l-6.75,19.52H196.59L233.42,49.78h23.92l36.84,102.59H272.46Zm-5.58-16.44L245.31,73.56l-14.82,42.85Z"></path><path d="M391.72,152.37H371.17l-46.52-70.3v70.3H304.1V49.78h20.55l46.52,70.45V49.78h20.55Z"></path><path d="M469.37,56.24a45.08,45.08,0,0,1,18.93,18Q495,85.89,495,101.3t-6.68,26.93a45.35,45.35,0,0,1-18.93,17.83q-12.25,6.31-28.39,6.31H405.17V49.93H441Q457.12,49.93,469.37,56.24Zm-4.18,69.86q8.81-8.8,8.81-24.8t-8.81-25q-8.81-9-24.95-9H425.71V134.9h14.53Q456.38,134.9,465.19,126.1Z"></path><path d="M519.66,149.73a31.71,31.71,0,0,1-13.58-10.57A27.81,27.81,0,0,1,501,122.87h22a14.17,14.17,0,0,0,4.48,10q4,3.68,11.08,3.67t11.3-3.45a11.25,11.25,0,0,0,4.11-9,10.47,10.47,0,0,0-2.79-7.48,19.5,19.5,0,0,0-7-4.62,116.79,116.79,0,0,0-11.52-3.75,122,122,0,0,1-16.22-5.79,28.42,28.42,0,0,1-10.71-8.66q-4.49-5.8-4.48-15.48a27.7,27.7,0,0,1,4.55-15.85,29,29,0,0,1,12.77-10.35,46.4,46.4,0,0,1,18.78-3.6q15.85,0,25.76,7.71T574,77.67h-22.6A11.75,11.75,0,0,0,547,68.94q-4.17-3.45-11.08-3.45-6,0-9.61,3.08t-3.59,9a9.26,9.26,0,0,0,2.71,6.83,20.62,20.62,0,0,0,6.75,4.4q4,1.68,11.38,3.89a119.79,119.79,0,0,1,16.29,5.87,29.42,29.42,0,0,1,10.86,8.8q4.55,5.88,4.55,15.41A29,29,0,0,1,571,138a30.08,30.08,0,0,1-12.47,11.22q-8.24,4.18-19.52,4.19A48.73,48.73,0,0,1,519.66,149.73Z"></path></svg>